# xmcd
#
# Track frame offsets: 
#        200
#        17245
#        40705
#        66637
#
# Disc length: 1184 seconds
#
# Revision: 3
# Processed by: cddbd v1.5.2PL0 Copyright (c) Steve Scherf et al.
# Submitted via: ExactAudioCopyFreeDBPlugin 1.0
#
DISCID=32049e04
DTITLE=Jesus loves U - One on One EP
DYEAR=1990
DGENRE=Goa
TTITLE0=One on One (Fon Force 7" Edit)
TTITLE1=One on One (Massive Attack Mix)
TTITLE2=The Love (Danny Rampling Mix)
TTITLE3=Generations Of Love (Oakenfold Edit)
EXTD=
EXTT0=
EXTT1=
EXTT2=
EXTT3=
PLAYORDER=
